<svg id="Слой_1" data-name="Слой 1" xmlns="http://www.w3.org/2000/svg" viewBox="0 0 161.72 83.23"><defs><style>.cls-1,.cls-3,.cls-4,.cls-5{fill:#fff;}.cls-2{font-size:64.49px;fill:#ed1f24;font-family:ColonnaMT, Colonna MT;}.cls-3,.cls-4{font-size:24px;font-family:TimesNewRomanPSMT, Times New Roman;}.cls-3{letter-spacing:0.19em;}.cls-5{fill-rule:evenodd;}</style></defs><path class="cls-1" d="M5248.51,1685.92a12.66,12.66,0,0,1,6.43,2l.83.46a1.42,1.42,0,0,0,.66.22c.43,0,.72-.32.85-.94.06-.24.27-.37.64-.37s.59.13.59.37v.07a17.4,17.4,0,0,0-.28,3.35,25.91,25.91,0,0,0,.16,2.78c.11.93.21,1.88.32,2.86a.39.39,0,0,1-.22.35.86.86,0,0,1-.52.14c-.42,0-.65-.15-.69-.44q-2-8.64-9-8.64a7.45,7.45,0,0,0-3.61.88c.51-1,1.08-2,1.69-2.92a16.92,16.92,0,0,1,2.16-.14Zm-8.7,23.35c.14.64.3,1.26.49,1.85,0,.14.09.28.13.41a33.39,33.39,0,0,0,4.46,8.94,11.5,11.5,0,0,1-7.41-4.13q-3.48-4.38-3.48-12.57a23.62,23.62,0,0,1,1.79-9.53,13.62,13.62,0,0,1,5.07-6.2,12.53,12.53,0,0,1,2.93-1.4,30.42,30.42,0,0,0-4.73,16.08,29.24,29.24,0,0,0,.75,6.55Zm5.74,8.79a7,7,0,0,0,2.88.58,10.26,10.26,0,0,0,4.69-.87,7.33,7.33,0,0,0,2.9-3.25,17.47,17.47,0,0,0,1.68-5.88c0-.33.21-.51.52-.51a.92.92,0,0,1,.56.22c.18.15.27.28.27.38l0,.1a32,32,0,0,0-.2,3.94c0,.88.1,3.27.3,7.15a.53.53,0,0,1-.2.46.72.72,0,0,1-.44.14.52.52,0,0,1-.59-.46,2.8,2.8,0,0,0-.58-1.33,1.25,1.25,0,0,0-1-.5,1.81,1.81,0,0,0-1,.34,13.08,13.08,0,0,1-3.37,1.69,13.54,13.54,0,0,1-3.86.46h-.89c-.62-.87-1.19-1.75-1.71-2.65Z" transform="translate(-5234 -1659.57)"/><text class="cls-2" transform="translate(132.12 61.19) scale(0.85 1)">Z</text><text class="cls-3" transform="translate(31.91 53)">ASIN</text><text class="cls-4" transform="translate(107.75 53)">O</text><text class="cls-4" transform="translate(127.29 50.1)">-</text><path class="cls-5" d="M5319.4,1678l-6.49-14.2-6.49,14.2-8.58-10.31,6.3,20.13h17.55l6.3-20.13L5319.4,1678Zm-6.49-12.26-6.3,13.81-6.68-8,4.83,15.44h16.3l4.83-15.44-6.68,8-6.3-13.81Z" transform="translate(-5234 -1659.57)"/><path class="cls-5" d="M5339.77,1719.47h19.5v.85h-19.5v-.85Zm-53.4,0h-19.5v.85h19.5v-.85Z" transform="translate(-5234 -1659.57)"/><path class="cls-5" d="M5327.24,1687h31.95v.85h-31.95V1687Zm-28.35,0h-32v.85h32V1687Z" transform="translate(-5234 -1659.57)"/><path class="cls-5" d="M5320.89,1716.9c-1.84-1.37-3.28,1.19-3.28,1.19s-1.44-2.56-3.28-1.19c-1.11.83-.53,2.54.5,3.93a10.28,10.28,0,0,0,2.78,2.47,10.16,10.16,0,0,0,2.77-2.47c1-1.39,1.62-3.1.51-3.93Z" transform="translate(-5234 -1659.57)"/><path class="cls-5" d="M5297.89,1718.71a9,9,0,0,0-2.48-2.21,9.16,9.16,0,0,0-2.49,2.21c-.92,1.24-1.45,2.78-.45,3.52s2-.4,2.5-1v.8c-.24.67-1.13.77-1.13.77v.47H5297v-.47s-.89-.1-1.12-.77v-.8c.51.58,1.43,1.77,2.5,1s.47-2.28-.46-3.52Z" transform="translate(-5234 -1659.57)"/><path class="cls-5" d="M5332.21,1720.11a1.44,1.44,0,0,0-2.81-.43h-.09a.37.37,0,0,1-.36-.36h0a1.43,1.43,0,1,0-.88,0h0a.36.36,0,0,1-.36.36,1.41,1.41,0,0,0-1.37-1,1.44,1.44,0,1,0,1.37,1.88s.36.16.36.35v1.14c-.23.67-1.12.77-1.12.77v.47h3.13v-.47s-.89-.1-1.13-.77v-1.14c0-.19.45-.35.45-.35a1.44,1.44,0,0,0,2.81-.45Z" transform="translate(-5234 -1659.57)"/><polygon class="cls-5" points="72.51 56.93 69.02 60.33 72.51 63.72 76 60.33 72.51 56.93 72.51 56.93"/><polygon class="cls-5" points="78.91 0 76.73 2.12 78.91 4.25 81.1 2.12 78.91 0 78.91 0"/></svg>