<svg id="Layer_1" fill="#057AF0" data-name="Layer 1" xmlns="http://www.w3.org/2000/svg" viewBox="0 0 30 30">
    <path
        d="M4.07,9.78H4a1.79,1.79,0,0,0-1.78,1.79v7.78A1.79,1.79,0,0,0,4,21.15h.08a1.8,1.8,0,0,0,1.79-1.8V11.57A1.8,1.8,0,0,0,4.07,9.78Z" />
    <path
        d="M6.72,22.36A1.63,1.63,0,0,0,8.36,24h1.76v4.21A1.79,1.79,0,0,0,11.9,30H12a1.79,1.79,0,0,0,1.79-1.79V24h2.46v4.21A1.79,1.79,0,0,0,18,30h.07a1.79,1.79,0,0,0,1.79-1.79V24h1.76a1.64,1.64,0,0,0,1.64-1.64V10.07H6.72Z" />
    <path
        d="M19.12,2.61,20.52.46a.29.29,0,0,0-.09-.41A.3.3,0,0,0,20,.13L18.58,2.36a9.63,9.63,0,0,0-7.16,0L10,.13A.3.3,0,0,0,9.57.05a.29.29,0,0,0-.09.41l1.4,2.15A7.07,7.07,0,0,0,6.66,8.84a3.87,3.87,0,0,0,0,.48H23.32c0-.16,0-.32,0-.48A7.07,7.07,0,0,0,19.12,2.61Zm-8,3.86a.8.8,0,1,1,0-1.6.8.8,0,1,1,0,1.6Zm7.7,0a.8.8,0,0,1,0-1.6.8.8,0,1,1,0,1.6Z" />
    <path
        d="M26,9.78h-.07a1.8,1.8,0,0,0-1.79,1.79v7.78a1.8,1.8,0,0,0,1.79,1.8H26a1.79,1.79,0,0,0,1.78-1.8V11.57A1.79,1.79,0,0,0,26,9.78Z" />
    </svg>